<svg width="47" height="48" viewBox="0 0 47 48" fill="none" xmlns="http://www.w3.org/2000/svg">
<path d="M25.6524 15.7594V0H21.328V15.7594L13.6204 2.10527L9.88441 4.33082L17.5919 17.985L4.23618 10.1053L2.08864 13.9248L15.4149 21.8045H0V26.2256H15.4149L2.08864 34.1053L4.23618 37.9248L17.5919 30.0451L9.88441 43.6993L13.6204 45.8947L21.328 32.2406V48H25.6524V32.2406" fill="white"/>
<path d="M21.328 15.7594V0H25.6524V15.7594L33.3599 2.13534L37.0959 4.33082L29.3884 17.985L42.7442 10.1053L44.8917 13.9248L31.536 21.8045H46.9509V26.2256H31.536L44.8917 34.1053L42.7442 37.9248L29.3884 30.0451L37.0959 43.6993L33.3599 45.8947L25.6524 32.2406V48H21.328V32.2406" fill="white"/>
</svg>
